<?xml version="1.0" encoding="UTF-8"?>
<!DOCTYPE svg PUBLIC "-//W3C//DTD SVG 1.1//EN" "http://www.w3.org/Graphics/SVG/1.1/DTD/svg11.dtd">
<!-- Creator: CorelDRAW X7 -->
<svg xmlns="http://www.w3.org/2000/svg" xml:space="preserve" width="30.1641mm" height="16.9052mm" version="1.1" style="shape-rendering:geometricPrecision; text-rendering:geometricPrecision; image-rendering:optimizeQuality; fill-rule:evenodd; clip-rule:evenodd"
viewBox="0 0 2278 1277"
 xmlns:xlink="http://www.w3.org/1999/xlink">
 <defs>
  <style type="text/css">
   <![CDATA[
    .fil0 {fill:#FEFEFE}
   ]]>
  </style>
 </defs>
 <g id="Layer_x0020_1">
  <metadata id="CorelCorpID_0Corel-Layer"/>
  <path class="fil0" d="M1 1252l25 -57c21,17 45,26 71,26 28,0 41,-10 41,-30 0,-11 -4,-21 -12,-28 -8,-7 -24,-16 -48,-26 -52,-21 -78,-52 -78,-91 0,-26 10,-46 30,-61 20,-14 45,-21 76,-21 31,0 61,7 88,21l-20 54c-15,-13 -37,-20 -64,-20 -24,0 -37,10 -37,30 0,8 4,14 12,21 8,6 26,14 52,25 27,10 46,23 57,38 12,14 18,32 18,53 0,28 -11,50 -32,66 -20,17 -48,25 -84,25 -20,0 -36,-2 -48,-5 -12,-4 -28,-10 -47,-20zm857 -502c18,-5 38,-13 56,-24l1 0c8,-4 17,-5 26,-3 8,2 15,8 20,16l0 0 0 0 1 0c4,8 5,18 3,26l0 0c-2,9 -8,17 -16,21l0 0c-29,17 -59,28 -86,35 -52,14 -95,14 -97,14 -10,0 -18,-4 -25,-10l0 0c-6,-7 -10,-15 -10,-25 0,-2 0,-45 14,-97 7,-27 18,-57 35,-86l0 0 0 0 0 0c4,-8 12,-14 21,-16 8,-2 17,-1 26,3l0 0 0 1 0 0c8,4 14,12 16,20l0 0c2,9 1,18 -3,27l0 0c-11,18 -19,38 -24,56 -6,20 -10,39 -12,54 15,-2 34,-6 54,-12zm495 -421c0,30 -11,61 -35,84l0 0c-11,12 -24,20 -38,26 -15,6 -30,9 -46,9 -16,0 -31,-3 -46,-9 -14,-6 -27,-14 -38,-26l0 0c-12,-11 -20,-24 -26,-38 -6,-15 -9,-30 -9,-46 0,-16 3,-31 9,-46 6,-14 14,-27 26,-39l0 0c22,-22 53,-33 84,-33 31,0 62,11 84,33l0 0c24,24 35,54 35,85zm-119 47c12,0 25,-5 33,-14l1 0c9,-9 13,-21 13,-33 0,-12 -4,-24 -14,-34 -4,-4 -9,-8 -15,-10 -5,-2 -12,-3 -18,-3 -6,0 -13,1 -18,3 -6,2 -11,6 -16,10 -4,5 -8,10 -10,16 -2,5 -4,12 -4,18 0,6 2,12 4,18 2,6 6,11 10,16l0 -1c9,9 22,14 34,14zm320 -333c3,8 5,18 5,27l0 0c-1,43 -9,129 -51,230 -26,63 -66,132 -126,200 6,15 13,32 18,51 5,21 9,43 6,62l0 0c-3,28 -24,62 -53,99 -28,36 -65,75 -104,113l0 0c-4,4 -10,8 -16,11 -6,2 -13,4 -19,4 -2,0 -4,-1 -6,-1l0 0c-2,0 -4,0 -6,-1l0 0c-9,-2 -17,-6 -23,-12 -6,-6 -11,-13 -14,-22l0 0 -35 -109c-5,3 -10,5 -15,8 -8,4 -17,9 -26,13l0 0c-5,2 -10,4 -15,5 -5,1 -10,2 -15,2 -9,0 -18,-2 -26,-5 -8,-4 -16,-9 -23,-15l0 0 -154 -155c-10,-10 -17,-23 -19,-37 -3,-13 -1,-28 6,-41l0 0c4,-9 9,-18 13,-27 3,-5 5,-10 8,-15l-109 -35 -1 0c-8,-2 -15,-7 -21,-13l0 0c-6,-7 -10,-14 -12,-23l0 0c-2,-9 -2,-17 0,-25 2,-9 7,-16 13,-22 38,-39 77,-76 113,-104 36,-30 70,-50 99,-54 19,-2 41,1 62,7 18,5 36,12 51,17 67,-59 137,-99 200,-125 101,-42 187,-50 230,-51l0 0c9,0 18,2 27,5 8,4 16,9 23,15l0 0c6,7 11,15 15,23zm-677 228c-26,22 -53,47 -72,66l94 30c17,-27 35,-52 53,-76 17,-22 34,-42 52,-61 -7,-2 -14,-4 -21,-6 -11,-2 -21,-4 -29,-3l0 0c-17,2 -47,24 -77,50zm28 229l154 154c149,-72 246,-160 310,-247 105,-143 119,-282 121,-338 -56,1 -195,16 -338,121 -87,64 -175,161 -247,310zm383 182c26,-30 48,-60 50,-78l0 0c1,-7 -1,-17 -3,-28 -2,-7 -4,-14 -6,-21 -19,18 -39,35 -61,52 -24,18 -49,35 -76,52l30 95c19,-20 44,-46 66,-72zm826 344l-35 0 0 -57 35 0 0 -61 70 -26 0 87 83 0 0 57 -83 0 0 132c0,22 4,37 11,46 6,9 18,13 35,13 17,0 33,-4 48,-14l0 65c-17,6 -40,9 -70,9 -30,0 -53,-9 -70,-26 -16,-17 -24,-41 -24,-73l0 -152zm-64 116l-215 0c1,24 9,42 25,56 15,13 35,20 61,20 32,0 57,-8 73,-25l28 54c-25,20 -62,30 -111,30 -46,0 -83,-14 -109,-41 -27,-27 -40,-64 -40,-113 0,-47 14,-86 44,-115 29,-30 64,-44 105,-44 44,0 79,13 105,39 27,26 40,59 40,99 0,9 -2,22 -6,40zm-212 -53l147 0c-5,-45 -29,-67 -73,-67 -40,0 -65,22 -74,67zm-186 182l0 -175c0,-25 -5,-44 -15,-56 -10,-12 -26,-18 -48,-18 -10,0 -21,3 -33,9 -12,6 -21,13 -27,22l0 218 -71 0 0 -302 51 0 13 28c19,-22 47,-33 84,-33 36,0 64,10 85,32 21,21 31,51 31,90l0 185 -70 0zm-247 -129l-216 0c2,24 10,42 25,56 15,13 36,20 61,20 33,0 57,-8 74,-25l27 54c-25,20 -62,30 -111,30 -46,0 -82,-14 -109,-41 -27,-27 -40,-64 -40,-113 0,-47 15,-86 44,-115 29,-30 65,-44 106,-44 43,0 78,13 105,39 26,26 40,59 40,99 0,9 -2,22 -6,40zm-213 -53l148 0c-5,-45 -30,-67 -73,-67 -40,0 -65,22 -75,67zm-314 163l25 -57c21,17 44,26 71,26 27,0 41,-10 41,-30 0,-11 -4,-21 -13,-28 -8,-7 -24,-16 -48,-26 -52,-21 -78,-52 -78,-91 0,-26 10,-46 30,-61 20,-14 45,-21 76,-21 32,0 61,7 89,21l-20 54c-16,-13 -37,-20 -65,-20 -24,0 -36,10 -36,30 0,8 4,14 12,21 8,6 25,14 51,25 27,10 46,23 58,38 11,14 17,32 17,53 0,28 -10,50 -31,66 -21,17 -49,25 -85,25 -20,0 -36,-2 -48,-5 -12,-4 -27,-10 -46,-20zm-111 19l0 -175c0,-25 -5,-44 -15,-56 -10,-12 -26,-18 -48,-18 -10,0 -21,3 -33,9 -12,6 -21,13 -28,22l0 218 -70 0 0 -302 51 0 13 28c19,-22 47,-33 84,-33 36,0 64,10 85,32 21,21 31,51 31,90l0 185 -70 0zm-239 -129l-215 0c1,24 9,42 25,56 15,13 35,20 61,20 32,0 57,-8 73,-25l28 54c-25,20 -62,30 -111,30 -46,0 -83,-14 -109,-41 -27,-27 -40,-64 -40,-113 0,-47 14,-86 44,-115 29,-30 64,-44 105,-44 44,0 79,13 105,39 27,26 40,59 40,99 0,9 -2,22 -6,40zm-212 -53l147 0c-5,-45 -29,-67 -73,-67 -40,0 -65,22 -74,67z"/>
 </g>
</svg>
